<svg width="56" height="56" viewBox="0 0 56 56" fill="none" xmlns="http://www.w3.org/2000/svg">
  <path d="M35.6541 17.465C35.8808 16.3925 36 15.2804 36 14.1405C36 8.21823 32.7824 3.04748 28 0.281006C23.2176 3.04748 20 8.21823 20 14.1405C20 15.2804 20.1192 16.3924 20.3458 17.4649C19.3959 16.9179 18.3751 16.4609 17.2909 16.1086C11.6585 14.2786 5.74656 15.7408 1.63763 19.4343C2.79086 24.8375 6.71425 29.4955 12.3467 31.3255C13.4308 31.6778 14.5254 31.9081 15.6154 32.024C14.8016 32.7584 14.0515 33.5881 13.3814 34.5103C9.9004 39.3015 9.4642 45.376 11.7072 50.4252C17.2023 50.9981 22.8447 48.7061 26.3257 43.9149C26.9957 42.9927 27.5529 42.0229 28 41.0221C28.447 42.0229 29.0042 42.9927 29.6743 43.9149C33.1553 48.7061 38.7976 50.9981 44.2928 50.4252C46.5357 45.376 46.0995 39.3015 42.6185 34.5103C41.9485 33.5881 41.1984 32.7585 40.3846 32.0241C41.4746 31.9082 42.5691 31.6779 43.6533 31.3256C49.2857 29.4956 53.2091 24.8376 54.3623 19.4344C50.2534 15.7409 44.3414 14.2787 38.709 16.1087C37.6249 16.461 36.6041 16.918 35.6541 17.465Z" fill="#F8F8FF"/>
  <circle cx="28" cy="28" r="6" fill="#FFA585"/>
</svg>
